<svg width="28" height="28" viewBox="0 0 28 28" fill="none" xmlns="http://www.w3.org/2000/svg">
<path d="M14.1667 26.6666C21.0702 26.6666 26.6667 21.0701 26.6667 14.1666C26.6667 7.26306 21.0702 1.66663 14.1667 1.66663C7.26312 1.66663 1.66669 7.26306 1.66669 14.1666C1.66669 16.1663 2.13621 18.0561 2.97101 19.7323C3.19286 20.1776 3.2667 20.6868 3.13809 21.1674L2.39357 23.95C2.07037 25.1579 3.17545 26.2629 4.38337 25.9398L7.16592 25.1953C7.6466 25.0666 8.1557 25.1405 8.6011 25.3622C10.2771 26.1971 12.1671 26.6666 14.1667 26.6666Z" stroke="black" stroke-width="2"/>
<path d="M9.16669 12.2916H19.1667" stroke="black" stroke-width="2" stroke-linecap="round"/>
<path d="M9.16669 16.6666H16.0417" stroke="black" stroke-width="2" stroke-linecap="round"/>
</svg>
