<svg width="27" height="27" viewBox="0 0 27 27" fill="none" xmlns="http://www.w3.org/2000/svg">
<path d="M26 21.4125C26 21.8625 25.8999 22.325 25.687 22.775C25.4742 23.225 25.1988 23.65 24.8358 24.05C24.2223 24.725 23.5463 25.2125 22.7827 25.525C22.0315 25.8375 21.2178 26 20.3415 26C19.0646 26 17.7001 25.7 16.2604 25.0875C14.8207 24.475 13.3811 23.65 11.9539 22.6125C10.5143 21.5625 9.14972 20.4 7.84777 19.1125C6.55834 17.8125 5.39409 16.45 4.35503 15.025C3.32849 13.6 2.50225 12.175 1.90135 10.7625C1.30045 9.3375 1 7.975 1 6.675C1 5.825 1.15023 5.0125 1.45068 4.2625C1.75113 3.5 2.22684 2.8 2.89034 2.175C3.69154 1.3875 4.56785 1 5.49424 1C5.84477 1 6.19529 1.075 6.50826 1.225C6.83375 1.375 7.12168 1.6 7.34702 1.925L10.2514 6.0125C10.4767 6.325 10.6395 6.6125 10.7521 6.8875C10.8648 7.15 10.9274 7.4125 10.9274 7.65C10.9274 7.95 10.8398 8.25 10.6645 8.5375C10.5018 8.825 10.2639 9.125 9.96345 9.425L9.01202 10.4125C8.87431 10.55 8.81172 10.7125 8.81172 10.9125C8.81172 11.0125 8.82424 11.1 8.84928 11.2C8.88683 11.3 8.92439 11.375 8.94943 11.45C9.17476 11.8625 9.56284 12.4 10.1137 13.05C10.677 13.7 11.2779 14.3625 11.9289 15.025C12.6049 15.6875 13.2559 16.3 13.9194 16.8625C14.5704 17.4125 15.1087 17.7875 15.5343 18.0125C15.5969 18.0375 15.672 18.075 15.7596 18.1125C15.8598 18.15 15.9599 18.1625 16.0726 18.1625C16.2854 18.1625 16.4482 18.0875 16.5859 17.95L17.5373 17.0125C17.8503 16.7 18.1507 16.4625 18.4387 16.3125C18.7266 16.1375 19.0145 16.05 19.3275 16.05C19.5653 16.05 19.8157 16.1 20.0911 16.2125C20.3666 16.325 20.6545 16.4875 20.9675 16.7L25.1112 19.6375C25.4367 19.8625 25.662 20.125 25.7997 20.4375C25.9249 20.75 26 21.0625 26 21.4125Z" stroke="black" stroke-width="2" stroke-miterlimit="10"/>
</svg>
