<svg width="25" height="9" viewBox="0 0 25 9" fill="none" xmlns="http://www.w3.org/2000/svg">
<g clip-path="url(#clip0_430_23)">
<path d="M1.9898 0.31935C3.91156 2.1901 6.14371 3.45285 8.68622 4.10762C11.2287 4.76238 13.7713 4.76238 16.3138 4.10762C18.8563 3.45285 21.0884 2.1901 23.0102 0.31935C23.2483 0.0982615 23.5289 -0.00803099 23.852 0.000472411C24.1752 0.00897581 24.4473 0.128023 24.6684 0.357615C24.8895 0.587207 25 0.863568 25 1.1867C25 1.50983 24.881 1.78193 24.6429 2.00302C24.3878 2.25813 24.1327 2.49622 23.8776 2.71731L24.3112 3.22751C24.5153 3.46561 24.6003 3.74622 24.5663 4.06935C24.5323 4.39248 24.392 4.66034 24.1454 4.87292C23.8988 5.08551 23.6139 5.17479 23.2908 5.14078C22.9677 5.10677 22.7041 4.97071 22.5 4.73262L21.9898 4.12037C21.2075 4.63057 20.3912 5.07275 19.5408 5.4469L19.8214 6.00813C19.9575 6.29724 19.9702 6.59486 19.8597 6.90098C19.7492 7.20711 19.5451 7.42819 19.2474 7.56425C18.9498 7.7003 18.648 7.71306 18.3418 7.60251C18.0357 7.49197 17.8146 7.29214 17.6786 7.00302L17.3469 6.23772C16.1395 6.57785 14.915 6.79044 13.6735 6.87547V7.36017C13.6735 7.6833 13.5587 7.95966 13.3291 8.18925C13.0995 8.41884 12.8231 8.53364 12.5 8.53364C12.1769 8.53364 11.9005 8.41884 11.6709 8.18925C11.4413 7.95966 11.3265 7.6833 11.3265 7.36017V6.87547C10.085 6.79044 8.86054 6.57785 7.65306 6.23772L7.32143 6.952C7.18537 7.25813 6.96429 7.46646 6.65816 7.577C6.35204 7.68755 6.05017 7.67479 5.75255 7.53874C5.45493 7.40268 5.25085 7.1816 5.14031 6.87547C5.02976 6.56935 5.04252 6.27173 5.17857 5.98262L5.43367 5.42139C4.58333 5.04724 3.76701 4.60506 2.98469 4.09486L2.5 4.6816C2.29592 4.9367 2.03231 5.077 1.70918 5.10251C1.38605 5.12802 1.10119 5.03874 0.854592 4.83466C0.607993 4.63057 0.467687 4.36697 0.433673 4.04384C0.39966 3.72071 0.484694 3.43159 0.688776 3.17649L1.09694 2.6918C0.841837 2.47071 0.595238 2.24112 0.357143 2.00302C0.119048 1.78193 0 1.50983 0 1.1867C0 0.863568 0.110544 0.587207 0.331633 0.357615C0.552721 0.128023 0.82483 0.00897581 1.14796 0.000472411C1.47109 -0.00803099 1.7517 0.0982615 1.9898 0.31935Z" fill="#8A8A8A"/>
</g>
<defs>
<clipPath id="clip0_430_23">
<rect width="25" height="9" fill="white"/>
</clipPath>
</defs>
</svg>
