<svg width="90" height="90" viewBox="0 0 90 90" fill="none" xmlns="http://www.w3.org/2000/svg">
<path d="M90 45C90 69.8528 69.8528 90 45 90C20.1472 90 0 69.8528 0 45C0 20.1472 20.1472 0 45 0C69.8528 0 90 20.1472 90 45Z" fill="#0051FF"/>
<path d="M78.5 44.75C78.5 63.3896 63.3896 78.5 44.75 78.5C26.1104 78.5 11 63.3896 11 44.75C11 26.1104 26.1104 11 44.75 11C63.3896 11 78.5 26.1104 78.5 44.75Z" stroke="white" stroke-width="5"/>
<path d="M68 44.5C68 56.9264 57.9264 67 45.5 67C33.0736 67 23 56.9264 23 44.5C23 32.0736 33.0736 22 45.5 22C57.9264 22 68 32.0736 68 44.5Z" stroke="white" stroke-width="5"/>
<path d="M56.5 45.25C56.5 51.4632 51.4632 56.5 45.25 56.5C39.0368 56.5 34 51.4632 34 45.25C34 39.0368 39.0368 34 45.25 34C51.4632 34 56.5 39.0368 56.5 45.25Z" stroke="white" stroke-width="5"/>
</svg>
