<svg width="466" height="472" viewBox="0 0 466 472" fill="none" xmlns="http://www.w3.org/2000/svg">
<path d="M402.126 63.6807C387.442 48.9912 377.391 23.3396 372.403 0C367.408 23.3444 357.368 49.0013 342.678 63.6908C327.994 78.3701 302.335 88.4208 279 93.4188C302.344 98.4066 327.999 108.451 342.683 123.141C357.367 137.825 367.418 163.482 372.413 186.822C377.401 163.478 387.449 137.821 402.131 123.131C416.815 108.447 442.474 98.4012 465.809 93.4033C442.47 88.4155 416.815 78.3653 402.126 63.6807Z" fill="#0051FF"/>
<circle cx="187.5" cy="166.584" r="73.5842" stroke="#0051FF" stroke-width="34"/>
<path d="M17 404.487C17 349.42 61.6406 304.779 116.708 304.779H258.292C313.359 304.779 358 349.42 358 404.487V404.487C358 432.02 335.68 454.341 308.146 454.341H66.8538C39.3203 454.341 17 432.02 17 404.487V404.487Z" stroke="#0051FF" stroke-width="34"/>
</svg>
