<svg width="30" height="22" viewBox="0 0 30 22" fill="none" xmlns="http://www.w3.org/2000/svg">
<rect x="1" y="1" width="28" height="20" rx="10" stroke="black" stroke-width="2"/>
<path d="M19.9184 12.9826L18.9477 12.341L19.771 11.2879L18.4931 10.9247L18.8617 9.87157L20.0904 10.3195L20.0413 9H21.2331L21.184 10.3195L22.4127 9.87157L22.7813 10.9247L21.4911 11.2879L22.3266 12.341L21.356 12.9826L20.631 11.9173L19.9184 12.9826Z" fill="black"/>
<path d="M14.6718 12.9826L13.7011 12.341L14.5244 11.2879L13.2465 10.9247L13.6151 9.87157L14.8438 10.3195L14.7947 9H15.9865L15.9374 10.3195L17.1661 9.87157L17.5347 10.9247L16.2445 11.2879L17.0801 12.341L16.1094 12.9826L15.3845 11.9173L14.6718 12.9826Z" fill="black"/>
<path d="M9.42529 12.9826L8.45462 12.341L9.27785 11.2879L8 10.9247L8.36861 9.87157L9.59731 10.3195L9.54816 9H10.74L10.6909 10.3195L11.9196 9.87157L12.2882 10.9247L10.998 11.2879L11.8335 12.341L10.8629 12.9826L10.1379 11.9173L9.42529 12.9826Z" fill="black"/>
</svg>
