<svg width="27" height="27" viewBox="0 0 27 27" fill="none" xmlns="http://www.w3.org/2000/svg">
<path d="M9.33984 16.4113C9.33984 18.0238 10.5773 19.3238 12.1149 19.3238H15.2524C16.5899 19.3238 17.6774 18.1863 17.6774 16.7863C17.6774 15.2613 17.0149 14.7238 16.0274 14.3738L10.9898 12.6238C10.0023 12.2738 9.33984 11.7363 9.33984 10.2113C9.33984 8.81133 10.4273 7.67383 11.7649 7.67383H14.9024C16.4399 7.67383 17.6774 8.97383 17.6774 10.5863" stroke="black" stroke-width="2" stroke-linecap="round" stroke-linejoin="round"/>
<path d="M13.5 6.00049V21.0005" stroke="black" stroke-width="2" stroke-linecap="round" stroke-linejoin="round"/>
<path d="M13.5 26C20.4035 26 26 20.4035 26 13.5C26 6.59644 20.4035 1 13.5 1C6.59644 1 1 6.59644 1 13.5C1 20.4035 6.59644 26 13.5 26Z" stroke="black" stroke-width="2" stroke-linecap="round" stroke-linejoin="round"/>
</svg>
