<svg width="482" height="482" viewBox="0 0 482 482" fill="none" xmlns="http://www.w3.org/2000/svg">
<path fill-rule="evenodd" clip-rule="evenodd" d="M212.706 34.9791C200.801 39.9024 186.519 47.382 166.378 57.9515L120.999 81.7652C96.3284 94.7119 78.7976 103.932 65.6614 112.705C52.8217 121.279 45.1532 128.815 39.8147 137.881C34.4524 146.987 31.4187 157.676 29.8371 173.73C28.2265 190.079 28.2107 210.753 28.2107 239.673V242.327C28.2107 271.247 28.2265 291.921 29.8371 308.27C31.4187 324.325 34.4524 335.014 39.8146 344.12C45.153 353.186 52.8214 360.721 65.6612 369.295C78.7977 378.068 96.3285 387.288 120.999 400.235L166.378 424.048C186.519 434.617 200.801 442.097 212.706 447.021C224.351 451.837 232.781 453.789 241 453.789C249.219 453.789 257.649 451.837 269.294 447.021C281.199 442.097 295.481 434.617 315.622 424.048L361 400.235C361 400.235 361.001 400.235 361 400.235C385.672 387.288 403.203 378.068 416.339 369.295C429.178 360.721 436.847 353.186 442.185 344.12C447.548 335.014 450.581 324.325 452.163 308.27C453.773 291.921 453.789 271.247 453.789 242.327V239.673C453.789 210.753 453.773 190.079 452.163 173.73C450.581 157.676 447.548 146.987 442.185 137.881C436.847 128.814 429.178 121.279 416.339 112.705C403.203 103.932 385.672 94.7119 361.001 81.7653L315.622 57.9515C295.481 47.382 281.199 39.9024 269.294 34.9791C257.65 30.1632 249.219 28.2107 241 28.2107C232.781 28.2107 224.35 30.1632 212.706 34.9791ZM201.924 8.90977C215.553 3.27358 227.794 0 241 0C254.206 0 266.447 3.27358 280.076 8.90978C293.309 14.3826 308.723 22.4715 328.134 32.6587L328.731 32.9715L374.801 57.148C398.624 69.6493 417.484 79.5462 432.006 89.2445C446.965 99.2344 458.279 109.613 466.495 123.566C474.687 137.478 478.431 152.621 480.238 170.964C482 188.856 482 210.916 482 238.93V243.07C482 271.084 482 293.144 480.238 311.036C478.431 329.38 474.687 344.522 466.495 358.435C458.278 372.388 446.965 382.766 432.006 392.756C417.488 402.451 398.634 412.345 374.82 424.842L374.11 425.215L328.123 449.347C308.716 459.531 293.306 467.618 280.076 473.09C266.448 478.726 254.207 482 241 482C227.793 482 215.552 478.726 201.924 473.09C188.694 467.618 173.284 459.531 153.878 449.347L107.891 425.215L107.175 424.84C83.3641 412.344 64.5117 402.45 49.9944 392.756C35.0355 382.766 23.7215 372.388 15.5054 358.435C7.31295 344.522 3.56936 329.38 1.76229 311.036C-0.000241902 293.144 -0.000134421 271.084 2.4042e-06 243.071V238.929C-0.000134421 210.915 -0.000241902 188.856 1.76229 170.964C3.56938 152.621 7.31301 137.478 15.5054 123.566C23.7214 109.613 35.0352 99.2344 49.9942 89.2445C64.5154 79.547 83.3734 69.6509 107.193 57.1511L107.89 56.7852L153.866 32.6583C173.278 22.4713 188.691 14.3825 201.924 8.90977Z" fill="#0051FF"/>
<path fill-rule="evenodd" clip-rule="evenodd" d="M124.632 63.3207C128.778 55.4422 138.526 52.4169 146.405 56.5635L354.636 166.159L437.995 124.479C445.959 120.497 455.642 123.725 459.623 131.688C463.605 139.651 460.377 149.334 452.414 153.316L370.567 194.239V263.689C370.567 272.592 363.35 279.81 354.447 279.81C345.544 279.81 338.326 272.592 338.326 263.689V210.359L257.12 250.963V456.55C257.12 465.453 249.903 472.67 241 472.67C232.096 472.67 224.879 465.453 224.879 456.55V250.963L29.5851 153.316C21.6219 149.334 18.3943 139.651 22.3758 131.688C26.3574 123.725 36.0405 120.497 44.0036 124.479L241 222.977L319.136 183.908L131.389 85.094C123.51 80.9474 120.485 71.1992 124.632 63.3207Z" fill="#0051FF"/>
<path fill-rule="evenodd" clip-rule="evenodd" d="M126.228 68.9156L162.011 48.8379L384.674 166.029V238.473C384.674 271.849 387.528 269.921 354.448 288.556C321.368 307.191 324.222 280.899 324.222 280.899V202.525L98.0732 83.4997L126.228 68.9156Z" fill="#0051FF"/>
</svg>
