<svg width="383" height="313" viewBox="0 0 383 313" fill="none" xmlns="http://www.w3.org/2000/svg">
<path d="M15 156.2C15 89.6376 15 56.3566 35.6782 35.6782C56.3566 15 89.6376 15 156.2 15H226.8C293.362 15 326.644 15 347.321 35.6782C368 56.3566 368 89.6376 368 156.2C368 222.762 368 256.044 347.321 276.721C326.644 297.4 293.362 297.4 226.8 297.4H156.2C89.6376 297.4 56.3566 297.4 35.6782 276.721C15 256.044 15 222.762 15 156.2Z" stroke="#0051FF" stroke-width="30"/>
<path d="M156.2 226.8H85.5996" stroke="#0051FF" stroke-width="30" stroke-linecap="round"/>
<path d="M262.1 226.8H235.625" stroke="#0051FF" stroke-width="30" stroke-linecap="round"/>
<path d="M15 120.9H368" stroke="#0051FF" stroke-width="30" stroke-linecap="round"/>
</svg>
