<svg width="21" height="24" viewBox="0 0 21 24" fill="none" xmlns="http://www.w3.org/2000/svg">
<g clip-path="url(#clip0_434_121)">
<path d="M13.6565 8.61577L13.2661 18.7693M7.8644 18.7693L7.47405 8.61577M18.7197 4.99433C19.1056 5.05299 19.4891 5.11504 19.8727 5.1816M18.7197 4.99433L17.5148 20.6568C17.4657 21.2945 17.1776 21.8901 16.7082 22.3245C16.2388 22.7589 15.6228 23.0002 14.9832 23H6.14732C5.50775 23.0002 4.89168 22.7589 4.42231 22.3245C3.95294 21.8901 3.66487 21.2945 3.61569 20.6568L2.4108 4.99433M18.7197 4.99433C17.4177 4.79748 16.1089 4.64809 14.7959 4.54644M2.4108 4.99433C2.02496 5.05186 1.64139 5.11391 1.25781 5.18048M2.4108 4.99433C3.71286 4.79748 5.02166 4.64809 6.33459 4.54644M14.7959 4.54644V3.51303C14.7959 2.18179 13.7693 1.07166 12.438 1.02992C11.1898 0.990027 9.94067 0.990027 8.69248 1.02992C7.36123 1.07166 6.33459 2.18292 6.33459 3.51303V4.54644M14.7959 4.54644C11.9797 4.32879 9.15083 4.32879 6.33459 4.54644" stroke="black" stroke-width="2" stroke-linecap="round" stroke-linejoin="round"/>
</g>
<defs>
<clipPath id="clip0_434_121">
<rect width="21" height="24" fill="white"/>
</clipPath>
</defs>
</svg>
