<svg width="432" height="405" viewBox="0 0 432 405" fill="none" xmlns="http://www.w3.org/2000/svg">
<path fill-rule="evenodd" clip-rule="evenodd" d="M128.232 360.621C128.203 375.974 115.74 388.397 100.389 388.376C85.0378 388.357 72.6064 375.902 72.6162 360.552C72.626 345.199 85.0731 332.76 100.424 332.76C107.807 332.768 114.884 335.708 120.099 340.932C125.314 346.157 128.239 353.239 128.232 360.621Z" stroke="#0051FF" stroke-width="33" stroke-linecap="round" stroke-linejoin="round"/>
<path fill-rule="evenodd" clip-rule="evenodd" d="M276.533 360.621C276.504 375.974 264.041 388.397 248.691 388.376C233.338 388.357 220.906 375.902 220.917 360.552C220.928 345.199 233.375 332.76 248.725 332.76C256.107 332.768 263.184 335.708 268.4 340.932C273.614 346.157 276.541 353.239 276.533 360.621Z" stroke="#0051FF" stroke-width="33" stroke-linecap="round" stroke-linejoin="round"/>
<path fill-rule="evenodd" clip-rule="evenodd" d="M377.869 91.2979H109.685L91.1113 239.89C91.1113 260.406 107.743 277.038 128.26 277.038L335.414 255.81C348.461 255.805 360.547 248.956 367.255 237.767L409.71 147.551C416.591 136.077 416.771 121.79 410.18 110.147C403.591 98.5041 391.247 91.3042 377.869 91.2979Z" stroke="#0051FF" stroke-width="33" stroke-linecap="round" stroke-linejoin="round"/>
<path d="M109.685 91.2966L91.9334 20.1311C91.4587 18.2798 89.7849 16.9889 87.8736 17.0001H17" stroke="#0051FF" stroke-width="33" stroke-linecap="round" stroke-linejoin="round"/>
</svg>
