<svg width="25" height="17" viewBox="0 0 25 17" fill="none" xmlns="http://www.w3.org/2000/svg">
<g clip-path="url(#clip0_430_21)">
<path d="M23.0102 6.60714C21.0884 4.7534 18.8563 3.4949 16.3138 2.83163C13.7713 2.16837 11.2287 2.16837 8.68622 2.83163C6.14371 3.4949 3.91156 4.7534 1.9898 6.60714C1.7517 6.82823 1.47109 6.93878 1.14796 6.93878C0.82483 6.93878 0.552721 6.81973 0.331633 6.58163C0.110544 6.34354 0 6.06293 0 5.7398C0 5.41667 0.119048 5.14456 0.357143 4.92347C2.02381 3.30782 3.92432 2.08333 6.05867 1.25C8.19303 0.416667 10.3401 0 12.5 0C14.6599 0 16.807 0.416667 18.9413 1.25C21.0757 2.08333 22.9762 3.30782 24.6429 4.92347C24.881 5.14456 25 5.41667 25 5.7398C25 6.06293 24.8895 6.34354 24.6684 6.58163C24.4473 6.81973 24.1752 6.93878 23.852 6.93878C23.5289 6.93878 23.2483 6.82823 23.0102 6.60714ZM12.8954 8.11225C12.0366 8.11225 11.301 8.41837 10.6888 9.03061C10.0765 9.64286 9.77041 10.3784 9.77041 11.2372C9.77041 12.0961 10.0765 12.8316 10.6888 13.4439C11.301 14.0561 12.0366 14.3622 12.8954 14.3622C13.7543 14.3622 14.4898 14.0561 15.102 13.4439C15.7143 12.8316 16.0204 12.0961 16.0204 11.2372C16.0204 10.3784 15.7143 9.64286 15.102 9.03061C14.4898 8.41837 13.7543 8.11225 12.8954 8.11225ZM7.42347 11.2372C7.42347 9.73214 7.95918 8.44388 9.03061 7.37245C10.102 6.30102 11.3903 5.76531 12.8954 5.76531C14.4005 5.76531 15.6888 6.30102 16.7602 7.37245C17.8316 8.44388 18.3673 9.73214 18.3673 11.2372C18.3673 12.7423 17.8316 14.0306 16.7602 15.102C15.6888 16.1735 14.4005 16.7092 12.8954 16.7092C11.3903 16.7092 10.102 16.1735 9.03061 15.102C7.95918 14.0306 7.42347 12.7423 7.42347 11.2372Z" fill="#8A8A8A"/>
</g>
<defs>
<clipPath id="clip0_430_21">
<rect width="25" height="17" fill="white"/>
</clipPath>
</defs>
</svg>
