<svg width="27" height="22" viewBox="0 0 27 22" fill="none" xmlns="http://www.w3.org/2000/svg">
<path d="M7 11.2C7 8.74869 7 7.52305 7.76152 6.76152C8.52305 6 9.74869 6 12.2 6H14.8C17.2513 6 18.477 6 19.2385 6.76152C20 7.52305 20 8.74869 20 11.2C20 13.6513 20 14.877 19.2385 15.6385C18.477 16.4 17.2513 16.4 14.8 16.4H12.2C9.74869 16.4 8.52305 16.4 7.76152 15.6385C7 14.877 7 13.6513 7 11.2Z" stroke="black" stroke-width="1.5"/>
<path d="M12.2016 13.7998H9.60156" stroke="black" stroke-width="1.5" stroke-linecap="round"/>
<path d="M16.1 13.7998H15.125" stroke="black" stroke-width="1.5" stroke-linecap="round"/>
<path d="M7 9.8999H20" stroke="black" stroke-width="1.5" stroke-linecap="round"/>
<rect x="1" y="1" width="25" height="20" rx="5" stroke="black" stroke-width="2"/>
</svg>
