<svg width="25" height="25" viewBox="0 0 25 25" fill="none" xmlns="http://www.w3.org/2000/svg">
<path fill-rule="evenodd" clip-rule="evenodd" d="M11.0324 1.81427C10.415 2.06963 9.67422 2.45757 8.62957 3.00578L6.27589 4.24094C4.99629 4.91244 4.08701 5.39067 3.40567 5.84568C2.73971 6.29042 2.34197 6.68125 2.06508 7.15148C1.78695 7.62379 1.6296 8.1782 1.54757 9.0109C1.46403 9.85888 1.46321 10.9312 1.46321 12.4312V12.5688C1.46321 14.0688 1.46403 15.1411 1.54757 15.9891C1.6296 16.8218 1.78695 17.3763 2.06507 17.8486C2.34196 18.3188 2.7397 18.7096 3.40567 19.1543C4.08702 19.6093 4.99629 20.0875 6.27591 20.7591L8.62956 21.9942C9.67421 22.5424 10.415 22.9303 11.0325 23.1857C11.6364 23.4355 12.0737 23.5368 12.5 23.5368C12.9263 23.5368 13.3636 23.4355 13.9675 23.1857C14.585 22.9303 15.3258 22.5424 16.3704 21.9942L18.7241 20.7591C18.7241 20.7591 18.7241 20.7591 18.7241 20.7591C20.0037 20.0876 20.913 19.6093 21.5943 19.1543C22.2603 18.7096 22.658 18.3188 22.9349 17.8486C23.213 17.3763 23.3704 16.8218 23.4524 15.9891C23.536 15.1411 23.5368 14.0688 23.5368 12.5688V12.4312C23.5368 10.9312 23.536 9.85888 23.4524 9.0109C23.3704 8.1782 23.2131 7.6238 22.9349 7.15148C22.658 6.68125 22.2603 6.29042 21.5943 5.84568C20.913 5.39067 20.0037 4.91244 18.7241 4.24094L16.3704 3.00578C15.3258 2.45757 14.585 2.06963 13.9676 1.81427C13.3636 1.56448 12.9263 1.46321 12.5 1.46321C12.0737 1.46321 11.6364 1.56448 11.0324 1.81427ZM10.4733 0.462125C11.1801 0.169791 11.815 0 12.5 0C13.185 0 13.8199 0.169791 14.5267 0.462125C15.2131 0.745985 16.0126 1.16553 17.0194 1.69392L17.0503 1.71014L19.4399 2.96411C20.6755 3.61252 21.6537 4.12584 22.4069 4.62886C23.1828 5.14702 23.7696 5.68535 24.1958 6.40903C24.6207 7.13063 24.8149 7.91602 24.9086 8.86745C25 9.79544 25 10.9396 25 12.3926V12.6074C25 14.0604 25 15.2046 24.9086 16.1326C24.8149 17.084 24.6207 17.8694 24.1958 18.591C23.7696 19.3147 23.1828 19.853 22.4069 20.3711C21.6539 20.874 20.676 21.3872 19.4409 22.0354L19.404 22.0547L17.0188 23.3064C16.0123 23.8346 15.213 24.254 14.5268 24.5378C13.8199 24.8302 13.185 25 12.5 25C11.815 25 11.1801 24.8302 10.4732 24.5378C9.78702 24.254 8.98776 23.8346 7.98123 23.3064L5.59598 22.0547L5.55888 22.0353C4.32386 21.3871 3.34605 20.874 2.59307 20.3711C1.81719 19.853 1.23037 19.3147 0.804224 18.591C0.379302 17.8694 0.185133 17.084 0.091405 16.1326C-1.25468e-05 15.2046 -6.97204e-06 14.0604 1.24699e-07 12.6074V12.3926C-6.97204e-06 10.9396 -1.25468e-05 9.79543 0.0914052 8.86745C0.185134 7.91602 0.379306 7.13063 0.804222 6.40903C1.23036 5.68534 1.81718 5.14701 2.59306 4.62886C3.34623 4.12588 4.32435 3.6126 5.55981 2.96427L5.59597 2.94529L7.9806 1.69389C8.98743 1.16552 9.78688 0.745981 10.4733 0.462125Z" fill="black"/>
<path fill-rule="evenodd" clip-rule="evenodd" d="M6.46249 3.28427C6.67757 2.87564 7.18318 2.71872 7.59181 2.93379L18.3922 8.61818L22.7158 6.45636C23.1288 6.24985 23.6311 6.41726 23.8376 6.83029C24.0441 7.24331 23.8767 7.74555 23.4636 7.95206L19.2185 10.0746V13.6768C19.2185 14.1386 18.8441 14.5129 18.3824 14.5129C17.9206 14.5129 17.5462 14.1386 17.5462 13.6768V10.9108L13.3343 13.0167V23.68C13.3343 24.1417 12.9599 24.5161 12.4982 24.5161C12.0364 24.5161 11.6621 24.1417 11.6621 23.68V13.0167L1.53269 7.95206C1.11967 7.74555 0.952254 7.24331 1.15877 6.83029C1.36528 6.41726 1.86751 6.24985 2.28054 6.45636L12.4982 11.5652L16.5509 9.53881L6.81297 4.41359C6.40434 4.19852 6.24742 3.69291 6.46249 3.28427Z" fill="black"/>
<path fill-rule="evenodd" clip-rule="evenodd" d="M6.54626 3.57458L8.4022 2.5332L19.9511 8.61158V12.3691C19.9511 14.1002 20.0992 14.0002 18.3834 14.9667C16.6676 15.9333 16.8157 14.5696 16.8157 14.5696V10.5046L5.08594 4.33101L6.54626 3.57458Z" fill="black"/>
</svg>
