<svg width="26" height="27" viewBox="0 0 26 27" fill="none" xmlns="http://www.w3.org/2000/svg">
<path d="M22.4522 3.5472C21.6343 2.72896 21.0744 1.30009 20.7966 0C20.5183 1.30035 19.9591 2.72952 19.1408 3.54777C18.3229 4.36545 16.8936 4.9253 15.5938 5.2037C16.8941 5.48154 18.3231 6.04106 19.1411 6.85934C19.959 7.67729 20.5189 9.10646 20.7972 10.4065C21.075 9.10619 21.6347 7.67703 22.4525 6.85878C23.2704 6.04083 24.6997 5.48124 25.9996 5.20284C24.6995 4.92501 23.2705 4.36518 22.4522 3.5472Z" fill="black"/>
<circle cx="10.4973" cy="9.27904" r="4.09886" stroke="black" stroke-width="2"/>
<path d="M1 22.5311C1 19.4637 3.48662 16.9771 6.55401 16.9771H14.4407C17.5081 16.9771 19.9947 19.4637 19.9947 22.5311V22.5311C19.9947 24.0648 18.7514 25.3081 17.2177 25.3081H3.777C2.2433 25.3081 1 24.0648 1 22.5311V22.5311Z" stroke="black" stroke-width="2"/>
</svg>
