<svg width="27" height="26" viewBox="0 0 27 26" fill="none" xmlns="http://www.w3.org/2000/svg">
<path fill-rule="evenodd" clip-rule="evenodd" d="M7.98566 22.5841C7.98381 23.5484 7.20096 24.3288 6.23671 24.3275C5.27244 24.3263 4.49157 23.5439 4.49219 22.5797C4.4928 21.6154 5.27465 20.834 6.23892 20.834C6.70262 20.8345 7.14716 21.0192 7.47474 21.3473C7.80232 21.6755 7.98609 22.1204 7.98566 22.5841Z" stroke="black" stroke-width="2" stroke-linecap="round" stroke-linejoin="round"/>
<path fill-rule="evenodd" clip-rule="evenodd" d="M17.3021 22.5841C17.3002 23.5484 16.5174 24.3288 15.5532 24.3275C14.5888 24.3263 13.8079 23.5439 13.8086 22.5797C13.8093 21.6154 14.5911 20.834 15.5553 20.834C16.019 20.8345 16.4635 21.0192 16.7912 21.3473C17.1187 21.6755 17.3026 22.1204 17.3021 22.5841Z" stroke="black" stroke-width="2" stroke-linecap="round" stroke-linejoin="round"/>
<path fill-rule="evenodd" clip-rule="evenodd" d="M23.6686 5.66699H6.82296L5.65625 15.0006C5.65625 16.2894 6.70096 17.3341 7.98968 17.3341L21.0018 16.0007C21.8213 16.0004 22.5805 15.5702 23.0019 14.8673L25.6687 9.20048C26.1008 8.47976 26.1122 7.58233 25.6982 6.85098C25.2843 6.11965 24.5089 5.66739 23.6686 5.66699Z" stroke="black" stroke-width="2" stroke-linecap="round" stroke-linejoin="round"/>
<path d="M6.8219 5.66687L5.70685 1.19668C5.67703 1.08039 5.5719 0.999304 5.45184 1H1" stroke="black" stroke-width="2" stroke-linecap="round" stroke-linejoin="round"/>
</svg>
