<svg width="27" height="23" viewBox="0 0 27 23" fill="none" xmlns="http://www.w3.org/2000/svg">
<rect x="1" y="1.32764" width="25" height="20" rx="5" stroke="black" stroke-width="2"/>
<path fill-rule="evenodd" clip-rule="evenodd" d="M10.6329 16.2235C10.632 16.725 10.2249 17.1308 9.72352 17.1301C9.22212 17.1295 8.81609 16.7227 8.81641 16.2213C8.81673 15.7198 9.22327 15.3135 9.72468 15.3135C9.96579 15.3137 10.1969 15.4098 10.3673 15.5804C10.5376 15.7511 10.6332 15.9824 10.6329 16.2235Z" stroke="black" stroke-width="1.5" stroke-linecap="round" stroke-linejoin="round"/>
<path fill-rule="evenodd" clip-rule="evenodd" d="M15.4767 16.2235C15.4757 16.725 15.0687 17.1308 14.5673 17.1301C14.0658 17.1295 13.6598 16.7227 13.6602 16.2213C13.6605 15.7198 14.0671 15.3135 14.5684 15.3135C14.8095 15.3137 15.0407 15.4098 15.2111 15.5804C15.3814 15.7511 15.477 15.9824 15.4767 16.2235Z" stroke="black" stroke-width="1.5" stroke-linecap="round" stroke-linejoin="round"/>
<path fill-rule="evenodd" clip-rule="evenodd" d="M18.784 7.42725H10.0246L9.41797 12.2808C9.41797 12.9509 9.9612 13.4942 10.6313 13.4942L17.3974 12.8008C17.8235 12.8006 18.2183 12.5769 18.4374 12.2115L19.824 9.26467C20.0488 8.8899 20.0547 8.42323 19.8394 8.04292C19.6242 7.66263 19.221 7.42745 18.784 7.42725Z" stroke="black" stroke-width="1.5" stroke-linecap="round" stroke-linejoin="round"/>
<path d="M10.0273 7.4268L9.44747 5.10227C9.43197 5.0418 9.3773 4.99964 9.31487 5H7" stroke="black" stroke-width="1.5" stroke-linecap="round" stroke-linejoin="round"/>
</svg>
