<svg width="26" height="27" viewBox="0 0 26 27" fill="none" xmlns="http://www.w3.org/2000/svg">
<path d="M7.10316 17.5737C7.25223 18.1132 7.81043 18.4298 8.34995 18.2807C8.88948 18.1317 9.20603 17.5735 9.05696 17.0339L7.10316 17.5737ZM1.2847 3.33061C0.74535 3.18096 0.186794 3.49689 0.0371486 4.03624C-0.112497 4.57561 0.203429 5.13416 0.742796 5.28381L1.2847 3.33061ZM24.2411 18.1963C24.7828 18.0556 25.108 17.5022 24.9672 16.9605C24.8264 16.4188 24.2731 16.0938 23.7314 16.2346L24.2411 18.1963ZM10.7403 20.6738C11.1587 22.1882 10.2403 23.7859 8.61344 24.2087L9.12328 26.1706C11.7949 25.4763 13.4274 22.7888 12.694 20.1341L10.7403 20.6738ZM8.61344 24.2087C6.976 24.6343 5.33288 23.6839 4.91098 22.1567L2.95718 22.6965C3.68706 25.3384 6.46223 26.8622 9.12328 26.1706L8.61344 24.2087ZM4.91098 22.1567C4.49261 20.6423 5.41096 19.0446 7.03781 18.6218L6.52797 16.66C3.85634 17.3543 2.22378 20.0418 2.95718 22.6965L4.91098 22.1567ZM7.03781 18.6218C8.67524 18.1963 10.3184 19.1467 10.7403 20.6738L12.694 20.1341C11.9642 17.4921 9.18901 15.9685 6.52797 16.66L7.03781 18.6218ZM9.05696 17.0339L6.14856 6.50639L4.19477 7.04616L7.10316 17.5737L9.05696 17.0339ZM3.58695 3.96935L1.2847 3.33061L0.742796 5.28381L3.04505 5.92255L3.58695 3.96935ZM6.14856 6.50639C5.8065 5.26827 4.82597 4.31311 3.58695 3.96935L3.04505 5.92255C3.62016 6.08212 4.04846 6.51657 4.19477 7.04616L6.14856 6.50639ZM11.972 21.3849L24.2411 18.1963L23.7314 16.2346L11.4622 19.423L11.972 21.3849Z" fill="black"/>
<path d="M9.88572 8.74375C9.23032 6.3714 8.90262 5.18524 9.45888 4.25077C10.0152 3.31629 11.2381 2.99846 13.6841 2.3628L16.2786 1.68857C18.7244 1.05291 19.9475 0.735062 20.9109 1.27458C21.8744 1.81409 22.2021 3.00027 22.8575 5.37261L23.5527 7.88886C24.2081 10.2612 24.5358 11.4474 23.9795 12.3818C23.4233 13.3164 22.2003 13.6342 19.7543 14.2699L17.1599 14.944C14.714 15.5797 13.4909 15.8975 12.5274 15.3581C11.5639 14.8185 11.2362 13.6323 10.5808 11.2601L9.88572 8.74375Z" stroke="black" stroke-width="2"/>
</svg>
