<svg width="27" height="22" viewBox="0 0 27 22" fill="none" xmlns="http://www.w3.org/2000/svg">
<path d="M1 11C1 6.28595 1 3.92894 2.46446 2.46446C3.92894 1 6.28595 1 11 1H16C20.714 1 23.0711 1 24.5355 2.46446C26 3.92894 26 6.28595 26 11C26 15.714 26 18.0711 24.5355 19.5355C23.0711 21 20.714 21 16 21H11C6.28595 21 3.92894 21 2.46446 19.5355C1 18.0711 1 15.714 1 11Z" stroke="black" stroke-width="2"/>
<path d="M11 16H6" stroke="black" stroke-width="2" stroke-linecap="round"/>
<path d="M18.5 16H16.625" stroke="black" stroke-width="2" stroke-linecap="round"/>
<path d="M1 8.5H26" stroke="black" stroke-width="2" stroke-linecap="round"/>
</svg>
