<svg width="409" height="409" viewBox="0 0 409 409" fill="none" xmlns="http://www.w3.org/2000/svg">
<path d="M141.444 248.637C141.444 273.082 160.205 292.79 183.514 292.79H231.078C251.355 292.79 267.841 275.546 267.841 254.322C267.841 231.203 257.798 223.054 242.827 217.748L166.458 191.218C151.488 185.912 141.444 177.764 141.444 154.645C141.444 133.421 157.931 116.177 178.208 116.177H225.772C249.081 116.177 267.841 135.885 267.841 160.33" stroke="#0051FF" stroke-width="30" stroke-linecap="round" stroke-linejoin="round"/>
<path d="M204.5 90.8076V318.208" stroke="#0051FF" stroke-width="30" stroke-linecap="round" stroke-linejoin="round"/>
<path d="M204.5 394C309.157 394 394 309.157 394 204.5C394 99.842 309.157 15 204.5 15C99.842 15 15 99.842 15 204.5C15 309.157 99.842 394 204.5 394Z" stroke="#0051FF" stroke-width="30" stroke-linecap="round" stroke-linejoin="round"/>
</svg>
